<?xml version="1.0" encoding="utf-8"?>
<!-- Generator: Adobe Illustrator 28.1.0, SVG Export Plug-In . SVG Version: 6.00 Build 0)  -->
<svg version="1.1" id="Layer_2" xmlns="http://www.w3.org/2000/svg" xmlns:xlink="http://www.w3.org/1999/xlink" x="0px" y="0px"
	 viewBox="0 0 1133 193.4" style="enable-background:new 0 0 1133 193.4;" xml:space="preserve">
<style type="text/css">
	.st0{fill:#FFFFFF;}
</style>
<g id="_레이어_1">
	<g>
		<g>
			<path class="st0" d="M143.8,95.1c0-0.6,0-1.1,0.1-1.7C143.9,94,143.8,94.5,143.8,95.1L143.8,95.1z"/>
			<path class="st0" d="M161.8,61.2c-10.2,5.8-17.4,18.1-17.9,32.5c0,0.6-0.1,1.1-0.1,1.7v24.7c0,5.9,4.8,10.8,10.8,10.8
				s10.8-4.8,10.8-10.8V98.1c0-0.1,0-0.3,0-0.4v-0.4c0-0.8,0.1-1.5,0.3-2.2c0.1-0.7,0.4-1.4,0.6-2c1.1-2.8,3-4.9,5.4-5.9
				c0.2-0.1,0.4-0.2,0.7-0.3c0.3-0.1,0.5-0.2,0.8-0.2c0.4-0.1,0.9-0.1,1.3-0.2c0.1,0,0.2,0,0.3,0c0.6,0,1.1,0.1,1.6,0.2
				c0.2,0.1,0.4,0.1,0.6,0.2c0.3,0.1,0.6,0.2,0.9,0.3c2.3,1,4.2,3.1,5.3,5.8c0.3,0.7,0.5,1.3,0.6,2c0.1,0.7,0.2,1.4,0.3,2.2v0.4
				c0,0.1,0,0.2,0,0.4v21.9c0,6,4.8,10.8,10.8,10.8s10.7-4.8,10.7-10.7V95.4c0-0.6,0-1.1-0.1-1.7c-0.5-14.4-7.7-26.8-17.9-32.5
				c-1.1-0.7-2.3-1.2-3.5-1.7v0c-2.2-0.9-4.6-1.5-7-1.7c-0.8-0.1-1.6-0.1-2.5-0.1c-3.3,0-6.5,0.6-9.4,1.8L161.8,61.2L161.8,61.2z"/>
			<path class="st0" d="M103.5,74.6c0-0.6,0-1.1,0.1-1.7C103.5,73.4,103.5,74,103.5,74.6L103.5,74.6z"/>
			<path class="st0" d="M121.5,40.6c-10.2,5.8-17.4,18.1-17.9,32.5c0,0.6-0.1,1.1-0.1,1.7V117c0,5.9,4.8,10.8,10.7,10.8
				s10.8-4.8,10.8-10.8V77.6c0-0.1,0-0.2,0-0.4v-0.4c0-0.8,0.1-1.5,0.3-2.2c0.2-0.7,0.4-1.4,0.6-2c1.1-2.8,3-4.9,5.4-5.9
				c0.2-0.1,0.4-0.2,0.7-0.2c0.3-0.1,0.5-0.2,0.8-0.2c0.4-0.1,0.9-0.2,1.3-0.2c0.1,0,0.2,0,0.3,0c0.6,0,1.1,0.1,1.6,0.2
				c0.2,0,0.4,0.1,0.6,0.2c0.3,0.1,0.6,0.2,0.8,0.3c2.3,1,4.2,3.1,5.3,5.8c0.3,0.7,0.5,1.3,0.6,2c0.2,0.7,0.2,1.4,0.3,2.2v0.4
				c0,0.1,0,0.2,0,0.4v42.5c0,6,4.8,10.8,10.8,10.8s10.7-4.8,10.7-10.7V74.9c0-0.6,0-1.1-0.1-1.7c-0.5-14.5-7.7-26.8-17.9-32.5
				c-1.1-0.6-2.3-1.2-3.5-1.7v0c-2.2-0.9-4.6-1.5-7-1.7c-0.8-0.1-1.6-0.1-2.5-0.1c-3.3,0-6.5,0.6-9.4,1.8L121.5,40.6L121.5,40.6z"/>
			<path class="st0" d="M117.6,114.8c0-0.8-0.2-18.9-0.3-19.6C117.4,95.8,117.5,114,117.6,114.8L117.6,114.8z"/>
			<path class="st0" d="M117.6,115.6c0-0.1,0-0.3,0-0.4C117.6,115.3,117.6,115.4,117.6,115.6L117.6,115.6z"/>
			<path class="st0" d="M98.8,98.1L98.8,98.1c0-0.8,0.1-1.6,0.2-2.3C98.8,96.5,98.8,97.3,98.8,98.1z"/>
			<path class="st0" d="M125.1,95.4c0-0.6,0-1.1-0.1-1.7C125,94.3,125.1,94.9,125.1,95.4L125.1,95.4z"/>
			<path class="st0" d="M107.1,65.2c-1.1-0.7-2.3-1.2-3.5-1.7c-2.9-1.2-6.1-1.8-9.4-1.8s-6.5,0.6-9.4,1.8c-1.8,0.7-3.5,1.6-5.1,2.7
				c3.3,6,5.1,12.8,5.1,19.9v16.1c0-0.8,0.1-1.6,0.2-2.3c0.2-1.1,0.5-2.2,0.9-3.2c0.1-0.3,0.3-0.7,0.5-1c0.3-0.6,0.7-1.2,1.2-1.7
				c1.7-2.1,4.1-3.4,6.7-3.4c3.7,0,6.9,2.7,8.5,6.5c0.2,0.7,0.5,1.3,0.6,2c0.2,0.7,0.3,1.4,0.3,2.2l0,0v0.4c0,0.1,0,0.3,0,0.4l0,0
				v18.8c0,6,4.8,10.8,10.8,10.8l0,0c5.9,0,10.8-4.8,10.8-10.8V99.4c0-0.6,0-1.1-0.1-1.7C124.5,83.2,117.3,70.9,107.1,65.2
				L107.1,65.2z"/>
			<path class="st0" d="M56.8,14.4c0,8-6.5,14.4-14.5,14.4s-14.5-6.5-14.5-14.4S34.4,0,42.4,0S56.9,6.5,56.8,14.4z"/>
			<path class="st0" d="M143.7,22.4c0,5.1-4.2,9.3-9.3,9.3s-9.3-4.2-9.3-9.3s4.2-9.3,9.3-9.3S143.7,17.3,143.7,22.4z"/>
			<path class="st0" d="M184.1,43c0,4.4-3.6,8-7.9,8s-7.9-3.5-7.9-8s3.6-7.9,7.9-7.9S184.1,38.7,184.1,43z"/>
			<path class="st0" d="M86.7,180.5h48.5c1.1,0,2.1,0.9,2.1,2.1v8.8c0,1.1-0.9,2.1-2.1,2.1H86.7c-1.1,0-2.1-0.9-2.1-2.1v-8.8
				C84.6,181.4,85.5,180.5,86.7,180.5z"/>
			<path class="st0" d="M84.8,81.8c0-24.6-19.1-44.8-42.4-44.8l0,0C19.1,37.1,0,57.2,0,81.8V147c0,2.3,1.7,4.1,3.9,4.1h22.6
				c2.1,0,3.9-1.8,3.9-4.1V85.5c0-7,5.4-12.7,12-12.7l0,0c6.6,0,12,5.7,12,12.7V147c0,2.3,1.7,4.1,3.9,4.1h22.6
				c2.2,0,3.9-1.8,3.9-4.1V81.8z"/>
			<path class="st0" d="M213.8,138.2H8c-4.4,0-8,3.6-8,8l0,0c0,4.4,3.6,8,8,8h60.3c2.2,0,4.3,1.5,4.8,3.7c0.6,3-1.7,5.7-4.6,5.7
				h-3.9v0H46.5c-3.4,0-6.4,2.4-6.7,5.8c-0.4,3.9,2.7,7.1,6.4,7.1h129.1c3.4,0,6.4-2.4,6.7-5.8c0.4-3.8-2.6-7.1-6.4-7.1h-18.4
				c0,0,0,0,0,0h-2.4c-2.3,0-4.3-1.5-4.8-3.7c-0.6-3,1.7-5.7,4.6-5.7h59.2c4.4,0,8-3.6,8-8l0,0C221.8,141.8,218.2,138.2,213.8,138.2
				z"/>
		</g>
	</g>
</g>
<g>
	<path class="st0" d="M338.1,117.2v-13.6l-78.9,7.8V42.6h70.2v21.7h-43.9v22.6l52.6-4.8V42.1h26.4v20.2l13.6-1.5v26.2l-13.6,1.5
		v26.1L338.1,117.2z M267.3,151.4v-36.6l26.4-2.4v16.9l72-6.4v28.5H267.3z"/>
	<path class="st0" d="M457.5,71c0,4.1-0.8,8-2.3,11.7c-1.5,3.7-3.9,6.9-7,9.7c-3.1,2.8-7,5-11.7,6.6c-4.7,1.6-10.2,2.4-16.4,2.4
		c-6.3,0-11.8-0.8-16.5-2.4c-4.7-1.6-8.6-3.8-11.7-6.6c-3.1-2.8-5.5-6-7-9.7c-1.5-3.7-2.3-7.6-2.3-11.7v-0.4c0-4,0.8-7.9,2.3-11.6
		c1.5-3.7,3.9-6.9,7-9.7c3.1-2.8,7-5,11.7-6.7c4.7-1.7,10.2-2.5,16.5-2.5c6.2,0,11.7,0.8,16.4,2.5c4.7,1.7,8.6,3.9,11.7,6.7
		c3.1,2.8,5.5,6,7,9.7c1.5,3.7,2.3,7.5,2.3,11.6V71z M416.7,154.4c-4.4,0-8.3-0.6-11.8-1.8c-3.5-1.2-6.5-2.9-9.1-5.1
		c-2.5-2.2-4.5-4.8-5.8-7.8c-1.3-3-2-6.4-2-10.2c0-3.8,0.7-7.1,2.1-10.1c1.4-3,3.3-5.5,5.8-7.6c2.5-2.1,5.5-3.8,9-5
		c3.5-1.2,7.4-2,11.8-2.4L464,101c4.4-0.3,8.3,0,11.9,1.2c3.6,1.1,6.6,2.8,9.1,5.1c2.5,2.3,4.4,5.2,5.8,8.7
		c1.4,3.5,2.1,7.4,2.1,11.7c0,4.1-0.7,7.8-2,11.1c-1.3,3.3-3.3,6.1-5.8,8.4c-2.5,2.3-5.6,4.1-9.1,5.3c-3.6,1.2-7.5,1.9-11.9,1.9
		H416.7z M431.1,70.8c0-2.7-0.9-5-2.8-6.9c-1.9-1.9-4.6-2.8-8.2-2.8c-3.7,0-6.5,0.9-8.3,2.8c-1.9,1.9-2.8,4.2-2.8,6.9
		c0,2.7,0.9,5,2.8,6.9c1.9,1.8,4.7,2.8,8.3,2.8c3.6,0,6.3-0.9,8.2-2.8C430.1,75.9,431.1,73.6,431.1,70.8z M421.6,126
		c-2,0.2-3.8,0.5-5.4,0.9c-1.6,0.4-2.4,1.3-2.3,2.7c0,0.7,0.2,1.2,0.7,1.6c0.5,0.4,1.1,0.7,1.9,0.8c0.8,0.2,1.6,0.3,2.6,0.3
		c0.9,0,1.9,0,2.8,0l37.5-2.1c1.9-0.1,3.6-0.3,5.3-0.8c1.6-0.4,2.4-1.4,2.3-2.8c-0.1-1.5-0.9-2.4-2.5-2.8c-1.6-0.4-3.4-0.5-5.3-0.3
		L421.6,126z M490.4,95.2V96l-26.4,2.7V42.1h26.4v3.7l13.6-1.5v23.1l-13.6,1.4v3.5l13.6-1.5v23.1L490.4,95.2z"/>
	<path class="st0" d="M581.9,74.7c0.9,1.9,1.4,3.9,1.4,6c0,3.3-0.8,6.2-2.5,8.7c-1.7,2.4-3.9,4.4-6.8,6c-2.9,1.5-6.2,2.7-9.9,3.4
		c-3.8,0.7-7.7,1.1-11.8,1.1h-6.9c-4.1,0-8-0.4-11.8-1.1c-3.8-0.7-7.1-1.9-9.9-3.4c-2.9-1.5-5.1-3.5-6.8-5.9
		c-1.7-2.4-2.5-5.3-2.5-8.7c0-2.1,0.5-4.2,1.4-6h-6V58.1h78.4v16.6H581.9z M523.4,153.1v-29.7l71.5-6.4v-2.8l-71.5,6.4v-15.8
		l97.9-9.2v31.5l-71.5,6.4v3l73.9-6.4v23.1H523.4z M525,55.8V39h48.3v16.8H525z M551.2,82.3c2.1,0,3.9-0.3,5.5-0.8
		c1.6-0.5,2.4-1.5,2.4-3c0-1.3-0.7-2.2-2.1-2.8c-1.4-0.6-3-0.9-4.8-1.1h-6c-2.1,0-3.9,0.3-5.5,0.8c-1.6,0.6-2.4,1.6-2.4,3
		c0,1.5,0.8,2.4,2.4,3c1.6,0.5,3.5,0.8,5.5,0.8H551.2z M594.9,95.1v-53h26.4v50.3L594.9,95.1z"/>
	<path class="st0" d="M720.7,103.9v-2.4l-84.1,7.8V68l45.2-2.3v-5h-45.2V42.1h71.5v37.1l-45.2,3.1v5.3l57.8-4V42.1h26.4v59.2
		L720.7,103.9z M673.4,154.4c-8.7,0-15.7-1.8-20.9-5.3c-5.2-3.6-7.8-9.1-7.8-16.6c0-3.8,0.7-7,2.1-9.7c1.4-2.7,3.3-5,5.8-6.8
		c2.5-1.8,5.5-3.3,9-4.2c3.5-1,7.4-1.6,11.8-2l47.4-3.5c8.7-0.6,15.7,1.1,20.9,5.1c5.2,4,7.8,10.4,7.8,19.3c0,8.1-2.6,14.1-7.8,18
		c-5.2,3.9-12.2,5.8-21,5.8H673.4z M677.1,129c-2,0.2-3.6,0.4-4.7,0.8c-1.2,0.4-1.8,1.2-1.8,2.4c0,0.6,0.2,1,0.7,1.3
		c0.5,0.3,1,0.5,1.7,0.6c0.7,0.1,1.4,0.2,2.2,0.1c0.8,0,1.5-0.1,2.2-0.1l39.8-2.2c1.9-0.2,3.4-0.5,4.6-0.9c1.2-0.4,1.8-1.2,1.8-2.3
		c0-0.6-0.2-1-0.7-1.3c-0.5-0.3-1-0.5-1.7-0.7c-0.7-0.2-1.4-0.3-2.2-0.3c-0.8,0-1.5,0-2.1,0L677.1,129z"/>
	<path class="st0" d="M761.5,109.6l-6.7-18.5l38.9-10v-1.3l-31.1,4V66.7l31.1-3.1v-2.3h-31.3V42.6h53.5v52.5L761.5,109.6z
		 M775,152.2v-43.8l99.2-9.2v53H775z M847.8,122.9l-46.3,4v4.2l46.3-3.2V122.9z M851,97.4V82.8l-6.8,0.8v14.4l-22.9,2.2v-58h22.9
		v15.3l6.8-0.8V42.1h23.2v53L851,97.4z"/>
	<path class="st0" d="M972.3,101.3v-2.4l-84.6,8V85.2l10.4-0.9V63.6h-8.5V42.5h76v21.2h-9.8V79l16.4-1.4V42.1h26.4v56.5L972.3,101.3
		z M925,154.4c-8.7,0-15.7-2.1-20.9-6.2c-5.2-4.1-7.8-9.9-7.8-17.5c0-3.8,0.7-7.1,2.1-9.9c1.4-2.8,3.3-5.2,5.8-7.1
		c2.5-1.9,5.5-3.4,9-4.6c3.5-1.1,7.4-1.8,11.8-2.2l47.4-3.5c8.7-0.6,15.7,1.3,20.9,5.6c5.2,4.4,7.8,11,7.8,19.8
		c0,8.2-2.6,14.5-7.8,18.9s-12.2,6.5-21,6.5H925z M929.9,127.3c-2,0.2-3.7,0.4-5.3,0.7c-1.6,0.3-2.4,1.1-2.4,2.5
		c0,0.7,0.3,1.2,0.9,1.6c0.6,0.4,1.3,0.6,2.1,0.8c0.8,0.1,1.7,0.2,2.6,0.1c0.9,0,1.7-0.1,2.4-0.1l37.5-2.1c1.9-0.2,3.6-0.4,5.2-0.8
		c1.6-0.3,2.4-1.2,2.4-2.6c0-0.7-0.3-1.2-0.9-1.6c-0.6-0.4-1.3-0.6-2.1-0.8c-0.8-0.1-1.7-0.2-2.6-0.2c-0.9,0-1.7,0-2.2,0
		L929.9,127.3z M930.8,63.6h-7.7V82l7.7-0.6V63.6z"/>
	<path class="st0" d="M1050.6,85.8l-29.5,20.8l-16.2-18l31.7-21.7v-2.7h-24.4V42.6h74.6v21.7h-23.1v2.6l28.8,15.4l-14.9,18.1
		L1050.6,85.8z M1045.7,154.4c-4.4,0-8.3-0.6-11.8-1.8c-3.5-1.2-6.5-2.9-9.1-5.1c-2.5-2.2-4.4-4.8-5.8-7.8c-1.3-3-2-6.4-2-10.2
		c0-3.8,0.7-7.1,2.1-10.1c1.4-3,3.3-5.5,5.8-7.6c2.5-2.1,5.5-3.8,9-5c3.5-1.2,7.4-2,11.8-2.4l47.4-3.5c4.4-0.3,8.3,0,11.9,1.2
		c3.5,1.1,6.6,2.8,9,5.1c2.5,2.3,4.4,5.2,5.8,8.7c1.4,3.5,2.1,7.4,2.1,11.7c0,4.1-0.7,7.8-2,11.1c-1.3,3.3-3.3,6.1-5.8,8.4
		c-2.5,2.3-5.6,4.1-9.1,5.3c-3.6,1.2-7.5,1.9-11.9,1.9H1045.7z M1050.6,126c-2,0.2-3.8,0.5-5.4,0.9c-1.6,0.4-2.4,1.3-2.3,2.7
		c0,0.7,0.2,1.2,0.7,1.6c0.5,0.4,1.1,0.7,1.9,0.8c0.8,0.2,1.6,0.3,2.6,0.3c0.9,0,1.9,0,2.8,0l37.5-2.1c1.9-0.1,3.6-0.3,5.3-0.8
		c1.6-0.4,2.4-1.4,2.3-2.8c-0.1-1.5-0.9-2.4-2.5-2.8c-1.6-0.4-3.4-0.5-5.3-0.3L1050.6,126z M1119.4,86.1V96l-26.4,2.7V42.1h26.4
		v17.8l13.6-1.5v26.2L1119.4,86.1z"/>
</g>
</svg>
