<?xml version="1.0" encoding="UTF-8"?>
<svg id="Layer_2" data-name="Layer 2" xmlns="http://www.w3.org/2000/svg" viewBox="0 0 987.54 193.39">
  <defs>
    <style>
      .cls-1, .cls-2, .cls-3, .cls-4, .cls-5, .cls-6, .cls-7, .cls-8, .cls-9, .cls-10 {
        stroke-width: 0px;
      }

      .cls-2 {
        fill: #2b5aa8;
      }

      .cls-3 {
        fill: #288141;
      }

      .cls-4 {
        fill: #3aa2a5;
      }

      .cls-5 {
        fill: #0f367d;
      }

      .cls-6 {
        fill: #231916;
      }

      .cls-7 {
        fill: #c93008;
      }

      .cls-8 {
        fill: #a3b4c8;
      }

      .cls-9 {
        fill: #b3b3ae;
      }

      .cls-10 {
        fill: #005982;
      }
    </style>
  </defs>
  <g id="_레이어_1" data-name="레이어 1">
    <g>
      <g>
        <path class="cls-8" d="m143.84,95.11c0-.58.03-1.13.06-1.71-.02.57-.06,1.13-.06,1.71h0Z"/>
        <path class="cls-10" d="m161.82,61.2c-10.21,5.76-17.39,18.08-17.93,32.53-.02.57-.06,1.13-.06,1.7v24.7c0,5.93,4.81,10.75,10.75,10.75s10.8-4.83,10.8-10.8v-21.93c0-.12.01-.26.01-.38v-.42c.04-.75.14-1.48.3-2.18.15-.71.35-1.39.61-2.03,1.08-2.76,3.02-4.88,5.4-5.89.22-.1.45-.19.67-.26.26-.09.51-.16.76-.22.44-.09.89-.14,1.34-.16.1,0,.19-.03.29-.03.56,0,1.1.09,1.63.2.22.05.44.11.64.17.29.1.58.2.85.33,2.33,1.03,4.24,3.13,5.3,5.84.26.65.46,1.33.62,2.03.15.7.25,1.43.3,2.19v.42c0,.13,0,.25,0,.38v21.93c0,5.97,4.84,10.8,10.8,10.8s10.74-4.81,10.74-10.74v-24.7c0-.58-.03-1.14-.05-1.71-.53-14.44-7.72-26.77-17.92-32.52-1.13-.65-2.3-1.23-3.49-1.7v-.02c-2.22-.89-4.58-1.48-7-1.71-.81-.08-1.63-.11-2.46-.11-3.28,0-6.46.64-9.41,1.82l-3.49,1.72Z"/>
        <path class="cls-2" d="m103.5,74.55c0-.57.03-1.14.05-1.7-.02.57-.05,1.13-.05,1.7h0Z"/>
        <path class="cls-3" d="m121.48,40.63c-10.2,5.76-17.4,18.08-17.93,32.53-.02.56-.05,1.13-.05,1.7v42.12c0,5.93,4.81,10.75,10.74,10.75s10.8-4.84,10.8-10.8v-39.35c0-.13,0-.25,0-.38v-.42c.04-.75.14-1.48.3-2.19.15-.71.36-1.39.61-2.03,1.08-2.76,3.03-4.89,5.4-5.9.22-.09.44-.18.67-.25.26-.09.51-.16.78-.21.43-.09.87-.15,1.33-.17.09,0,.19-.01.29-.01.56,0,1.09.08,1.63.2.22.04.43.1.64.17.29.09.57.21.84.33,2.34,1.03,4.24,3.13,5.3,5.84.26.65.46,1.33.61,2.04.16.7.25,1.43.3,2.18v.42c0,.13.02.25.02.38v42.49c0,5.97,4.83,10.8,10.8,10.8s10.74-4.81,10.74-10.74v-45.27c0-.58-.03-1.13-.06-1.7-.52-14.45-7.72-26.77-17.92-32.53-1.13-.64-2.29-1.22-3.49-1.69v-.02c-2.22-.9-4.57-1.47-7-1.71-.81-.08-1.63-.11-2.46-.11-3.28,0-6.46.64-9.41,1.82l-3.49,1.72Z"/>
        <path class="cls-2" d="m117.57,114.76c-.04-.75-.15-18.91-.3-19.61.16.7.26,18.86.3,19.61h0Z"/>
        <path class="cls-9" d="m117.58,115.56c0-.14-.01-.26-.01-.38,0,.13.01.25.01.38h0Z"/>
        <path class="cls-2" d="m98.78,98.13h0c0-.8.06-1.58.19-2.33-.13.75-.19,1.53-.19,2.33Z"/>
        <path class="cls-4" d="m125.05,95.43c0-.58-.04-1.14-.06-1.7.02.57.06,1.13.06,1.7h0Z"/>
        <path class="cls-10" d="m107.05,65.17c-1.14-.66-2.31-1.25-3.53-1.72-2.95-1.18-6.13-1.82-9.41-1.82s-6.46.64-9.41,1.82c-1.79.7-3.51,1.62-5.13,2.68,3.27,6.02,5.13,12.77,5.13,19.92v16.06c0-.8.06-1.58.19-2.34.18-1.12.51-2.2.94-3.18.14-.33.3-.65.47-.96.33-.61.72-1.18,1.15-1.71,1.7-2.09,4.05-3.38,6.66-3.38,3.73,0,6.95,2.67,8.47,6.54.25.65.46,1.33.61,2.03.15.71.26,1.44.3,2.2h0v.41c0,.14.02.26.02.39h0v18.79c0,5.96,4.83,10.8,10.8,10.8h0c5.93,0,10.75-4.81,10.75-10.75v-21.56c0-.57-.04-1.13-.06-1.7-.53-14.45-7.73-26.76-17.94-32.52Z"/>
        <path class="cls-7" d="m56.85,14.45c0,7.98-6.47,14.45-14.45,14.45s-14.45-6.46-14.45-14.45S34.42,0,42.4,0s14.45,6.47,14.45,14.45Z"/>
        <path class="cls-3" d="m143.67,22.44c0,5.15-4.17,9.32-9.31,9.32s-9.31-4.17-9.31-9.32,4.17-9.31,9.31-9.31,9.31,4.17,9.31,9.31Z"/>
        <path class="cls-10" d="m184.13,43.05c0,4.39-3.55,7.95-7.94,7.95s-7.94-3.55-7.94-7.95,3.56-7.94,7.94-7.94,7.94,3.56,7.94,7.94Z"/>
        <path class="cls-5" d="m86.67,180.48h48.48c1.13,0,2.05.92,2.05,2.05v8.81c0,1.13-.92,2.05-2.05,2.05h-48.48c-1.13,0-2.05-.92-2.05-2.05v-8.81c0-1.13.92-2.05,2.05-2.05Z"/>
        <path class="cls-5" d="m84.81,81.85c0-24.62-19.08-44.76-42.41-44.76h0C19.08,37.09,0,57.22,0,81.85v65.12c0,2.27,1.74,4.1,3.88,4.1h22.64c2.14,0,3.88-1.83,3.88-4.1v-61.46c0-6.96,5.4-12.66,12-12.66h0c6.6,0,11.99,5.7,11.99,12.66v61.46c0,2.27,1.74,4.1,3.88,4.1h22.65c2.15,0,3.89-1.83,3.89-4.1v-65.12Z"/>
        <path class="cls-5" d="m213.79,138.23H8.03c-4.41,0-8.03,3.62-8.03,8.03h0c0,4.41,3.61,8.03,8.03,8.03h60.34c2.25,0,4.31,1.51,4.77,3.72.64,3.03-1.69,5.73-4.62,5.73h-3.87v.02h-18.13c-3.36,0-6.39,2.44-6.72,5.79-.39,3.85,2.65,7.12,6.42,7.12h129.09c3.36,0,6.38-2.45,6.72-5.79.39-3.84-2.65-7.12-6.42-7.12h-18.43s0,0,0-.02h-2.4c-2.26,0-4.32-1.51-4.78-3.72-.64-3.03,1.69-5.73,4.62-5.73h59.17c4.41,0,8.03-3.62,8.03-8.03h0c0-4.41-3.62-8.03-8.03-8.03Z"/>
      </g>
      <g>
        <path class="cls-6" d="m246.63,192.24v-29.9h9.89c2.24,0,3.94.14,5.12.43,1.65.39,3.05,1.11,4.21,2.14,1.52,1.33,2.65,3.03,3.4,5.11.75,2.07,1.13,4.44,1.13,7.11,0,2.27-.26,4.28-.76,6.04-.51,1.75-1.16,3.2-1.96,4.35-.8,1.15-1.67,2.05-2.62,2.71-.95.66-2.09,1.16-3.42,1.5-1.34.34-2.88.51-4.62.51h-10.36Zm3.8-3.53h6.13c1.9,0,3.38-.18,4.46-.55,1.08-.37,1.94-.88,2.58-1.55.9-.94,1.6-2.2,2.1-3.78.51-1.58.76-3.5.76-5.76,0-3.13-.5-5.53-1.48-7.21-.98-1.68-2.18-2.8-3.59-3.37-1.02-.41-2.66-.61-4.92-.61h-6.03v22.84Z"/>
        <path class="cls-6" d="m273.65,192.24l11.04-29.9h4.09l11.75,29.9h-4.33l-3.35-9.05h-12.01l-3.16,9.05h-4.04Zm8.29-12.28h9.74l-3-8.28c-.91-2.51-1.6-4.58-2.04-6.2-.36,1.92-.88,3.82-1.55,5.71l-3.15,8.77Z"/>
        <path class="cls-6" d="m304.74,192.24v-29.9h3.9l15.09,23.47v-23.47h3.64v29.9h-3.9l-15.09-23.5v23.5h-3.64Z"/>
        <path class="cls-6" d="m343.05,192.24v-12.66l-11.07-17.23h4.63l5.66,9.01c1.05,1.69,2.02,3.37,2.92,5.06.86-1.57,1.91-3.33,3.14-5.28l5.57-8.79h4.42l-11.46,17.23v12.66h-3.8Z"/>
        <path class="cls-6" d="m356.79,192.24l11.03-29.9h4.09l11.76,29.9h-4.33l-3.35-9.05h-12.01l-3.15,9.05h-4.04Zm8.29-12.28h9.74l-3-8.28c-.91-2.51-1.59-4.58-2.04-6.2-.36,1.92-.88,3.82-1.55,5.71l-3.16,8.77Z"/>
        <path class="cls-6" d="m387.88,192.24v-29.9h3.9l15.09,23.47v-23.47h3.64v29.9h-3.9l-15.09-23.5v23.5h-3.64Z"/>
        <path class="cls-6" d="m431.53,180.51v-3.51l12.17-.02v11.09c-1.87,1.55-3.79,2.72-5.78,3.5-1.99.78-4.02,1.17-6.12,1.17-2.82,0-5.38-.63-7.69-1.89-2.31-1.26-4.05-3.08-5.22-5.46-1.17-2.38-1.76-5.04-1.76-7.97s.58-5.62,1.75-8.15c1.18-2.52,2.85-4.39,5.05-5.62,2.2-1.22,4.72-1.84,7.58-1.84,2.07,0,3.96.35,5.63,1.05,1.68.7,2.99,1.68,3.95,2.92.95,1.25,1.68,2.88,2.18,4.9l-3.43.97c-.43-1.52-.97-2.72-1.6-3.59-.64-.87-1.56-1.57-2.74-2.09-1.19-.52-2.51-.79-3.96-.79-1.74,0-3.24.28-4.51.83-1.27.55-2.29,1.27-3.07,2.17-.78.9-1.38,1.88-1.81,2.96-.73,1.85-1.09,3.86-1.09,6.02,0,2.67.44,4.89,1.32,6.69.88,1.79,2.16,3.13,3.85,4,1.68.87,3.47,1.3,5.37,1.3,1.64,0,3.25-.33,4.82-.99,1.57-.66,2.76-1.36,3.57-2.11v-5.57h-8.45Z"/>
        <path class="cls-6" d="m469.44,192.24v-26.37h-9.46v-3.53h22.77v3.53h-9.51v26.37h-3.8Z"/>
        <path class="cls-6" d="m485.97,177.68c0-4.97,1.28-8.85,3.84-11.66,2.56-2.81,5.86-4.21,9.92-4.21,2.65,0,5.04.66,7.17,1.98,2.13,1.32,3.75,3.16,4.87,5.52,1.12,2.36,1.67,5.03,1.67,8.02s-.59,5.74-1.76,8.14c-1.18,2.4-2.85,4.21-4.99,5.44-2.16,1.23-4.49,1.85-6.98,1.85-2.71,0-5.12-.68-7.25-2.04-2.13-1.36-3.74-3.21-4.84-5.57-1.1-2.35-1.64-4.84-1.64-7.46Zm3.92.06c0,3.6.93,6.44,2.79,8.51,1.86,2.08,4.2,3.11,7,3.11s5.22-1.05,7.06-3.14c1.85-2.09,2.78-5.06,2.78-8.91,0-2.43-.39-4.56-1.18-6.37-.8-1.81-1.95-3.22-3.47-4.22-1.52-1-3.23-1.5-5.12-1.5-2.69,0-5.01.96-6.95,2.88-1.94,1.93-2.91,5.14-2.91,9.64Z"/>
        <path class="cls-6" d="m538.39,162.34h3.8v17.27c0,3.01-.33,5.39-.98,7.16-.65,1.77-1.83,3.21-3.53,4.31-1.71,1.11-3.94,1.66-6.71,1.66s-4.89-.48-6.6-1.45c-1.71-.97-2.93-2.36-3.66-4.19-.73-1.83-1.1-4.33-1.1-7.49v-17.27h3.8v17.25c0,2.6.23,4.51.69,5.74.46,1.23,1.26,2.18,2.39,2.84,1.13.67,2.51,1,4.14,1,2.8,0,4.79-.66,5.97-1.98,1.19-1.32,1.79-3.85,1.79-7.61v-17.25Z"/>
        <path class="cls-6" d="m549.78,192.24v-29.9h12.74c2.56,0,4.51.27,5.83.8,1.33.54,2.4,1.49,3.19,2.84.8,1.36,1.2,2.86,1.2,4.51,0,2.12-.66,3.91-1.97,5.36-1.32,1.45-3.36,2.38-6.12,2.77,1,.5,1.77,1,2.29,1.49,1.11,1.06,2.16,2.39,3.15,3.98l5,8.14h-4.78l-3.8-6.22c-1.11-1.8-2.02-3.17-2.74-4.12-.72-.95-1.36-1.62-1.93-2-.57-.38-1.14-.64-1.73-.79-.43-.1-1.14-.14-2.12-.14h-4.4v13.28h-3.8Zm3.8-16.7h8.17c1.74,0,3.1-.19,4.08-.56.97-.37,1.73-.97,2.23-1.79.51-.82.76-1.71.76-2.68,0-1.41-.49-2.58-1.48-3.49-.99-.91-2.55-1.37-4.67-1.37h-9.09v9.89Z"/>
        <path class="cls-6" d="m580.55,192.24v-29.9h3.8v29.9h-3.8Z"/>
        <path class="cls-6" d="m590.96,182.63l3.59-.32c.17,1.5.56,2.72,1.19,3.68.62.96,1.58,1.73,2.89,2.32,1.31.59,2.78.89,4.41.89,1.45,0,2.73-.22,3.84-.67,1.11-.45,1.94-1.07,2.48-1.85.54-.78.81-1.63.81-2.56s-.26-1.75-.78-2.46c-.52-.7-1.39-1.29-2.59-1.76-.77-.31-2.47-.8-5.11-1.46-2.64-.66-4.49-1.28-5.54-1.87-1.37-.75-2.39-1.68-3.07-2.78-.68-1.11-1.01-2.35-1.01-3.72,0-1.51.41-2.92,1.24-4.23.82-1.31,2.02-2.31,3.6-2.98,1.58-.68,3.34-1.02,5.27-1.02,2.12,0,4.01.36,5.63,1.07,1.63.71,2.88,1.76,3.75,3.15.88,1.39,1.35,2.96,1.41,4.71l-3.65.29c-.2-1.89-.86-3.32-1.99-4.28-1.13-.97-2.8-1.45-5.01-1.45s-3.97.44-5.02,1.32c-1.06.87-1.58,1.93-1.58,3.17,0,1.07.37,1.96,1.12,2.65.73.69,2.64,1.4,5.73,2.13,3.09.73,5.21,1.37,6.35,1.91,1.67.8,2.91,1.82,3.7,3.05.8,1.23,1.19,2.65,1.19,4.25s-.44,3.09-1.31,4.5c-.88,1.41-2.14,2.5-3.78,3.28-1.64.78-3.48,1.17-5.53,1.17-2.6,0-4.77-.39-6.53-1.18-1.76-.79-3.13-1.98-4.14-3.56-1-1.58-1.53-3.37-1.58-5.38Z"/>
        <path class="cls-6" d="m620.1,192.24v-29.9h5.72l6.8,21.17c.62,1.97,1.08,3.44,1.37,4.43.32-1.09.84-2.69,1.53-4.79l6.88-20.8h5.11v29.9h-3.67v-25.02l-8.35,25.02h-3.43l-8.3-25.45v25.45h-3.66Z"/>
        <path class="cls-6" d="m691.28,181.75l3.8,1c-.8,3.25-2.23,5.73-4.29,7.44-2.08,1.7-4.61,2.56-7.59,2.56s-5.61-.65-7.56-1.97c-1.94-1.31-3.42-3.21-4.42-5.7-1.01-2.49-1.52-5.16-1.52-8.01,0-3.11.57-5.83,1.71-8.15,1.14-2.32,2.77-4.08,4.88-5.28,2.11-1.2,4.43-1.81,6.96-1.81,2.87,0,5.29.76,7.24,2.29,1.96,1.52,3.33,3.66,4.1,6.43l-3.74.92c-.66-2.17-1.63-3.76-2.9-4.75-1.27-.99-2.86-1.49-4.78-1.49-2.21,0-4.06.55-5.54,1.65-1.48,1.1-2.52,2.58-3.12,4.43-.6,1.86-.91,3.77-.91,5.74,0,2.54.36,4.76,1.07,6.66.72,1.9,1.82,3.31,3.33,4.25,1.5.94,3.12,1.41,4.88,1.41,2.12,0,3.93-.64,5.4-1.92,1.48-1.28,2.48-3.18,3-5.69Z"/>
        <path class="cls-6" d="m699.81,177.68c0-4.97,1.28-8.85,3.84-11.66,2.56-2.81,5.86-4.21,9.91-4.21,2.66,0,5.04.66,7.17,1.98,2.13,1.32,3.76,3.16,4.87,5.52,1.12,2.36,1.68,5.03,1.68,8.02s-.59,5.74-1.77,8.14c-1.17,2.4-2.84,4.21-4.99,5.44-2.16,1.23-4.48,1.85-6.98,1.85-2.7,0-5.12-.68-7.25-2.04-2.13-1.36-3.74-3.21-4.84-5.57-1.1-2.35-1.64-4.84-1.64-7.46Zm3.92.06c0,3.6.93,6.44,2.79,8.51,1.86,2.08,4.2,3.11,7.01,3.11s5.22-1.05,7.07-3.14c1.85-2.09,2.78-5.06,2.78-8.91,0-2.43-.4-4.56-1.19-6.37-.78-1.81-1.94-3.22-3.47-4.22-1.52-1-3.23-1.5-5.12-1.5-2.69,0-5.01.96-6.95,2.88-1.94,1.93-2.91,5.14-2.91,9.64Z"/>
        <path class="cls-6" d="m733.44,192.24v-29.9h12.74c2.56,0,4.5.27,5.84.8,1.33.54,2.4,1.49,3.2,2.84.79,1.36,1.19,2.86,1.19,4.51,0,2.12-.66,3.91-1.98,5.36-1.32,1.45-3.36,2.38-6.11,2.77,1,.5,1.76,1,2.29,1.49,1.11,1.06,2.16,2.39,3.16,3.98l5,8.14h-4.78l-3.8-6.22c-1.11-1.8-2.02-3.17-2.74-4.12-.72-.95-1.36-1.62-1.93-2-.56-.38-1.14-.64-1.74-.79-.43-.1-1.13-.14-2.12-.14h-4.41v13.28h-3.8Zm3.8-16.7h8.17c1.74,0,3.1-.19,4.08-.56.98-.37,1.72-.97,2.23-1.79.51-.82.76-1.71.76-2.68,0-1.41-.49-2.58-1.48-3.49-.99-.91-2.54-1.37-4.67-1.37h-9.09v9.89Z"/>
        <path class="cls-6" d="m763.56,192.24v-29.9h10.83c1.91,0,3.36.1,4.37.29,1.41.24,2.59.71,3.54,1.4.96.69,1.72,1.65,2.31,2.89.58,1.24.87,2.6.87,4.08,0,2.54-.78,4.69-2.33,6.45-1.55,1.76-4.36,2.64-8.42,2.64h-7.37v12.16h-3.8Zm3.8-15.68h7.43c2.46,0,4.2-.47,5.23-1.43,1.03-.95,1.55-2.29,1.55-4.02,0-1.25-.3-2.32-.91-3.21-.6-.89-1.41-1.48-2.4-1.77-.63-.18-1.82-.27-3.55-.27h-7.34v10.69Z"/>
        <path class="cls-6" d="m790.38,177.68c0-4.97,1.27-8.85,3.84-11.66,2.56-2.81,5.86-4.21,9.91-4.21,2.65,0,5.04.66,7.17,1.98,2.13,1.32,3.75,3.16,4.87,5.52,1.12,2.36,1.68,5.03,1.68,8.02s-.59,5.74-1.76,8.14c-1.18,2.4-2.84,4.21-4.99,5.44-2.16,1.23-4.49,1.85-6.98,1.85-2.71,0-5.13-.68-7.25-2.04-2.13-1.36-3.74-3.21-4.84-5.57-1.1-2.35-1.64-4.84-1.64-7.46Zm3.92.06c0,3.6.93,6.44,2.79,8.51,1.86,2.08,4.2,3.11,7,3.11s5.22-1.05,7.07-3.14c1.85-2.09,2.77-5.06,2.77-8.91,0-2.43-.39-4.56-1.18-6.37-.79-1.81-1.95-3.22-3.47-4.22-1.52-1-3.23-1.5-5.12-1.5-2.69,0-5,.96-6.95,2.88-1.94,1.93-2.91,5.14-2.91,9.64Z"/>
        <path class="cls-6" d="m824,192.24v-29.9h12.74c2.56,0,4.51.27,5.84.8,1.33.54,2.39,1.49,3.19,2.84.8,1.36,1.19,2.86,1.19,4.51,0,2.12-.66,3.91-1.98,5.36-1.32,1.45-3.35,2.38-6.11,2.77,1,.5,1.77,1,2.29,1.49,1.11,1.06,2.17,2.39,3.15,3.98l5,8.14h-4.78l-3.8-6.22c-1.11-1.8-2.03-3.17-2.74-4.12-.72-.95-1.37-1.62-1.93-2-.57-.38-1.15-.64-1.74-.79-.43-.1-1.13-.14-2.12-.14h-4.41v13.28h-3.8Zm3.8-16.7h8.17c1.74,0,3.09-.19,4.07-.56.98-.37,1.73-.97,2.23-1.79.51-.82.76-1.71.76-2.68,0-1.41-.49-2.58-1.47-3.49-.99-.91-2.55-1.37-4.68-1.37h-9.09v9.89Z"/>
        <path class="cls-6" d="m850.97,192.24l11.03-29.9h4.1l11.75,29.9h-4.33l-3.35-9.05h-12.01l-3.16,9.05h-4.03Zm8.28-12.28h9.74l-3-8.28c-.91-2.51-1.6-4.58-2.04-6.2-.36,1.92-.88,3.82-1.55,5.71l-3.16,8.77Z"/>
        <path class="cls-6" d="m886.42,192.24v-26.37h-9.46v-3.53h22.77v3.53h-9.51v26.37h-3.8Z"/>
        <path class="cls-6" d="m905.47,192.24v-29.9h3.8v29.9h-3.8Z"/>
        <path class="cls-6" d="m916.02,177.68c0-4.97,1.28-8.85,3.84-11.66,2.56-2.81,5.86-4.21,9.91-4.21,2.65,0,5.04.66,7.17,1.98,2.13,1.32,3.75,3.16,4.87,5.52,1.12,2.36,1.68,5.03,1.68,8.02s-.58,5.74-1.76,8.14c-1.17,2.4-2.84,4.21-4.99,5.44-2.16,1.23-4.48,1.85-6.98,1.85-2.7,0-5.12-.68-7.25-2.04-2.13-1.36-3.74-3.21-4.84-5.57-1.1-2.35-1.65-4.84-1.65-7.46Zm3.92.06c0,3.6.93,6.44,2.79,8.51,1.86,2.08,4.2,3.11,7,3.11s5.22-1.05,7.07-3.14c1.85-2.09,2.77-5.06,2.77-8.91,0-2.43-.39-4.56-1.18-6.37-.79-1.81-1.95-3.22-3.47-4.22-1.52-1-3.23-1.5-5.12-1.5-2.69,0-5.01.96-6.95,2.88-1.94,1.93-2.91,5.14-2.91,9.64Z"/>
        <path class="cls-6" d="m949.56,192.24v-29.9h3.9l15.09,23.47v-23.47h3.64v29.9h-3.9l-15.09-23.5v23.5h-3.64Z"/>
      </g>
      <g>
        <g>
          <path class="cls-1" d="m334.63,131.16h-66.38c-.65,0-1.16-.21-1.54-.63-.27-.29-.57-.83-.57-1.7v-28.96c0-.3-.23-.53-.5-.53h-21.86c-.28,0-.49.23-.49.53v10.96c0,.29.21.53.49.53h7.05l.05.72s.02.1.04.13v20c0,3.9.82,6.76,2.42,8.56,1.6,1.78,4.18,2.68,7.67,2.68h73.62c.28,0,.49-.24.49-.53v-11.21c0-.31-.22-.54-.49-.54Z"/>
          <path class="cls-1" d="m349.88,49.81h-16.03V15.67c0-.29-.23-.52-.49-.52h-21.52c-.27,0-.51.23-.51.52v13.2c0,.32.24.55.51.55h7.06l.09.7.03,43.61h-62.04c-1.02,0-1.6-.43-1.93-.78-.47-.52-.71-1.28-.71-2.27v-33.18h44.57c.28,0,.5-.25.5-.55v-11.23c0-.3-.23-.53-.5-.53h-66.71c-.26,0-.5.23-.5.53v11.03c0,.32.23.54.5.54h7.12l.05.56v30.84c0,6.05,1.26,10.5,3.75,13.22,2.49,2.72,6.3,4.11,11.31,4.11l64.55-.02v21.57c0,.29.23.51.5.51h13.86c.27,0,.49-.22.49-.51v-45.47h16.03c.28,0,.49-.23.49-.52v-11.22c0-.28-.22-.53-.49-.53Z"/>
          <path class="cls-1" d="m409.67,79.86c3.81-1.62,7.21-3.86,10.08-6.67,2.87-2.8,5.15-6.16,6.8-9.98,1.65-3.81,2.49-7.99,2.49-12.36s-.84-8.41-2.49-12.23c-1.66-3.82-3.94-7.17-6.8-9.96-2.87-2.8-6.26-5.07-10.08-6.75-3.8-1.69-7.94-2.54-12.3-2.54s-8.64.85-12.44,2.54c-3.85,1.68-7.18,3.95-9.94,6.73-2.88,2.82-5.16,6.18-6.75,9.99-1.61,3.82-2.41,7.93-2.41,12.23s.8,8.53,2.41,12.36c1.6,3.82,3.86,7.17,6.7,9.95,2.81,2.83,6.17,5.07,9.98,6.69,3.75,1.6,8.03,2.45,12.38,2.45s8.63-.85,12.37-2.45Zm-18.53-11.2c-1.89-.98-3.6-2.33-5.06-3.98-1.48-1.88-2.62-3.96-3.48-6.32-.83-2.33-1.27-4.86-1.27-7.5s.43-5.05,1.27-7.36c.85-2.34,1.98-4.42,3.33-6.14,1.57-1.78,3.26-3.17,5.2-4.25,1.89-1.02,4.03-1.56,6.17-1.56s4.31.54,6.21,1.56c1.94,1.06,3.65,2.45,5.07,4.17,1.49,1.79,2.69,3.87,3.59,6.22.89,2.33,1.34,4.81,1.34,7.37s-.45,5.17-1.34,7.5c-.88,2.33-2.09,4.42-3.59,6.22-1.43,1.73-3.13,3.1-5.08,4.08-1.93,1.01-3.99,1.51-6.13,1.51s-4.32-.5-6.23-1.51Z"/>
          <path class="cls-1" d="m448.53,100.76c-3.04-2.6-6.67-4.74-10.75-6.34-4.09-1.59-8.49-2.38-13.04-2.38s-9.1.8-13.19,2.38c-4.08,1.6-7.64,3.75-10.61,6.34-3.11,2.66-5.56,5.81-7.28,9.38-1.73,3.57-2.61,7.4-2.61,11.39s.88,7.95,2.61,11.52c1.72,3.57,4.15,6.71,7.23,9.35,3,2.61,6.58,4.76,10.66,6.31,3.99,1.5,8.52,2.3,13.12,2.3s9.13-.8,13.13-2.3c4.06-1.55,7.7-3.69,10.78-6.31,2.97-2.62,5.38-5.76,7.16-9.34,1.78-3.57,2.68-7.45,2.68-11.53s-.9-7.84-2.68-11.39c-1.78-3.59-4.19-6.74-7.2-9.38Zm-5.17,20.77c0,5.08-1.87,9.33-5.54,12.66-3.68,3.34-8.08,5.03-13.09,5.03s-9.53-1.69-13.09-5c-3.58-3.35-5.38-7.61-5.38-12.68s1.8-9.22,5.36-12.61c3.57-3.37,7.98-5.08,13.1-5.08s9.41,1.71,13.09,5.08c3.67,3.37,5.54,7.6,5.54,12.61Z"/>
          <path class="cls-1" d="m475.92,31.42h-16.03v-15.76c0-.29-.24-.52-.51-.52h-21.48c-.27,0-.51.23-.51.52v13.2c0,.32.23.55.51.55h7.04l.09.7v57.77c0,.29.21.53.49.53h13.86c.27,0,.51-.25.51-.53v-20.69h16.03c.28,0,.5-.24.5-.52v-10.53c0-.3-.22-.53-.5-.53h-16.03v-12.6h16.03c.28,0,.5-.24.5-.53v-10.53c0-.3-.22-.52-.5-.52Z"/>
          <path class="cls-1" d="m609.81,50.51h-16.02V15.67c0-.29-.21-.52-.49-.52h-21.52c-.27,0-.49.23-.49.52v13.2c0,.32.22.55.49.55h7.08l.1.7v44.77l-.1.06c-1.81,1.25-4.14,2.2-6.92,2.87-2.81.64-6.43.97-10.76.97l-28.17.15v-27.9c0-.31-.23-.54-.5-.54h-20.38c-.27,0-.49.23-.49.54v11.24c0,.3.23.53.49.53h6.03v16.12h-25.58c-.27,0-.5.24-.5.53v11.24c0,.15.06.28.15.38.09.1.22.15.35.15l63.53-.14c5.67,0,10.27-.21,13.63-.56,3.41-.37,6.39-2.71,8.9-4.31l.32-.19v22.92c0,.29.22.53.48.53h13.87c.28,0,.49-.23.49-.53v-46.16h16.02c.28,0,.5-.23.5-.52v-11.23c0-.31-.22-.54-.5-.54Z"/>
          <path class="cls-1" d="m495.7,34.49h49.96c1.07,0,1.81.24,2.19.71.37.47.56,1.22.56,2.21v9.89c0,3.51-.05,6.85,0,10.43.03,2.45,0,4.01,0,7.58v2.25c0,.23-.01.37.08.51.1.15.26.24.41.24h13.93c.18,0,.33-.09.43-.25V22.75c0-.31-.2-.54-.48-.54h-67.07c-.27,0-.5.24-.5.54v11.21c0,.3.23.53.5.53Z"/>
          <path class="cls-1" d="m594.19,131.16h-66.36c-.82,0-1.3-.35-1.56-.63-.25-.3-.56-.83-.56-1.7v-28.96c0-.3-.22-.53-.5-.53h-21.87c-.27,0-.48.23-.48.53v10.96c0,.29.21.53.48.53h7.07l.06.72s0,.1.02.13v20c0,3.91.82,6.79,2.41,8.56,1.6,1.78,4.19,2.68,7.68,2.68h73.62c.27,0,.49-.24.49-.53v-11.21c0-.31-.22-.54-.49-.54Z"/>
          <path class="cls-1" d="m739.76,41.31h-16.03V15.67c0-.29-.23-.52-.5-.52h-21.52c-.29,0-.52.23-.52.52v13.2c0,.32.23.55.52.55h7.08l.08.7v36l-.08.08c-1.81,1.23-4.19,2.23-7.07,2.99-2.9.77-6.56,1.15-11.24,1.15h-27.8v-24.94c0-.13-.06-.28-.15-.38-.09-.09-.22-.15-.35-.15h-20.44c-.28,0-.5.23-.5.53v11.26c0,.28.23.53.5.53h6.09v13.15h-25.07c-.28,0-.5.23-.5.53v11.24c0,.29.22.51.5.51h62.63c5.95,0,10.72-.21,14.15-.63,3.48-.42,6.52-2.83,9.02-4.52l.31-.2v11.9c0,.3.23.54.5.54h13.87c.27,0,.5-.25.5-.54v-34.13h16.03c.27,0,.5-.24.5-.53v-12.64c0-.3-.23-.54-.5-.54Z"/>
          <path class="cls-1" d="m710.42,100.76c-3.05-2.6-6.64-4.72-10.75-6.34-4.08-1.59-8.47-2.38-13.05-2.38s-9.1.79-13.17,2.38c-4.07,1.6-7.65,3.74-10.63,6.34-3.1,2.64-5.52,5.79-7.26,9.38-1.73,3.55-2.61,7.39-2.61,11.39s.88,7.95,2.61,11.52c1.75,3.59,4.16,6.73,7.22,9.35,3,2.61,6.6,4.76,10.67,6.31,3.98,1.5,8.52,2.3,13.11,2.3s9.12-.8,13.11-2.3c4.11-1.57,7.72-3.69,10.79-6.31,2.96-2.61,5.38-5.75,7.16-9.34,1.78-3.57,2.68-7.45,2.68-11.53s-.9-7.84-2.68-11.39c-1.78-3.59-4.2-6.74-7.2-9.38Zm-5.18,20.77c0,5.08-1.86,9.33-5.52,12.66-3.69,3.34-8.09,5.03-13.1,5.03s-9.52-1.69-13.09-5c-3.58-3.35-5.38-7.61-5.38-12.68s1.8-9.22,5.37-12.61c3.57-3.37,7.97-5.08,13.1-5.08s9.42,1.71,13.1,5.08c3.66,3.37,5.52,7.6,5.52,12.61Z"/>
          <path class="cls-1" d="m862.28,70.03h-52.93v-24.65c0-.3-.21-.53-.51-.53h-20.87c-.27,0-.48.23-.48.53v11.17c0,.3.21.53.48.53h6.03v12.96h-42.25c-.27,0-.5.24-.5.54v11.22c0,.3.23.54.5.54h110.52c.27,0,.5-.24.5-.54v-11.22c0-.3-.23-.54-.5-.54Z"/>
          <path class="cls-1" d="m831.17,100.76c-3.05-2.6-6.67-4.74-10.76-6.34-4.08-1.59-8.46-2.38-13.04-2.38s-9.09.79-13.17,2.38c-4.06,1.6-7.65,3.74-10.62,6.34-3.1,2.64-5.55,5.79-7.29,9.38-1.71,3.55-2.59,7.39-2.59,11.39s.88,7.95,2.59,11.52c1.74,3.59,4.18,6.73,7.25,9.35,2.99,2.61,6.59,4.76,10.66,6.31,4,1.5,8.53,2.31,13.12,2.31s9.1-.81,13.11-2.31c4.07-1.55,7.71-3.69,10.79-6.31,2.96-2.62,5.38-5.76,7.15-9.35,1.77-3.57,2.67-7.44,2.67-11.52s-.89-7.84-2.67-11.39c-1.79-3.59-4.21-6.75-7.21-9.38Zm-5.19,20.77c0,5.08-1.85,9.33-5.51,12.66-3.69,3.34-8.09,5.03-13.1,5.03s-9.52-1.69-13.08-5c-3.58-3.35-5.4-7.6-5.4-12.68s1.81-9.22,5.4-12.61c3.56-3.37,7.97-5.08,13.08-5.08s9.41,1.71,13.1,5.08c3.67,3.37,5.51,7.6,5.51,12.61Z"/>
          <path class="cls-1" d="m403.1,13.82c0-.3-.23-.54-.5-.54h-10.32c-.28,0-.5.24-.5.54v7.57h11.32v-7.57Z"/>
          <path class="cls-1" d="m625.01,33.08h49.96c1.08,0,1.81.24,2.19.71.38.47.56,1.22.56,2.21v9.9c0,3.51-.05,6.85,0,10.43.03,2.45,0-.43,0,3.14v2.44c0,.24-.02.36.08.5.1.15.26.24.41.24h13.93c.18,0,.34-.1.43-.26V21.34c0-.31-.2-.54-.48-.54h-67.07c-.27,0-.5.23-.5.54v11.21c0,.3.22.53.5.53Z"/>
          <path class="cls-1" d="m764.47,32.38h68.11c1.07,0,1.81.24,2.19.71.37.47.56,1.22.56,2.21v9.9c0,3.5-.05,6.84,0,10.42.03,2.45,0-.42,0,3.15v2.44c0,.24-.02.36.08.51.1.14.25.24.41.24h13.93c.19,0,.34-.1.43-.26V20.64c0-.3-.2-.54-.48-.54h-85.22c-.27,0-.49.24-.49.54v11.21c0,.3.23.53.49.53Z"/>
        </g>
        <path class="cls-1" d="m944.84,96.38c-3.31-.77-6.86-2.69-10.66-5.74-3.8-3.06-7.15-7.15-10.04-12.29-2.07-3.68-3.72-7.85-4.96-12.51-.84-3.14-1.38-6.54-1.66-10.16V21.8c0-.18-.08-.34-.2-.43v-.16h-25.72v.06h-.28c-.24,0-.45.23-.45.52v13.2c0,.32.21.55.45.55h6.29l.08.7v21.65c-.38,3.51-1.03,6.79-1.95,9.83-1.57,5.14-3.6,9.6-6.08,13.38-2.81,4.17-5.95,7.54-9.42,10.11-3.47,2.57-6.78,4.29-9.92,5.16-.33.1-.52.27-.56.51-.04.24.02.46.19.66l8.93,11.05c2.4-.48,4.98-1.53,7.75-3.13,2.77-1.6,5.43-3.56,8-5.89,2.73-2.42,5.19-5.14,7.38-8.15,2.19-3,3.78-6.11,4.77-9.31.16-.58.45-.87.87-.87s.74.29.99.87c1.24,3.01,2.83,5.89,4.77,8.65,1.94,2.76,4.07,5.26,6.39,7.49,2.64,2.72,5.43,5,8.37,6.84,2.93,1.84,5.72,3.01,8.37,3.49l8.68-11.05c.16-.19.25-.41.25-.66s-.21-.41-.62-.51Z"/>
        <path class="cls-1" d="m956.14,92.3v50.44c0,.29.24.51.51.51h13.86c.28,0,.49-.22.49-.51V62.35h16.05c.26,0,.49-.23.49-.52v-11.22c0-.28-.23-.53-.49-.53h-16.05V15.93c0-.29-.21-.52-.49-.52h-21.52c-.28,0-.51.23-.51.52v13.2c0,.32.23.55.51.55h7.06l.09.7.03,43.61-.03,18.31Z"/>
      </g>
    </g>
  </g>
</svg>